<svg width="26" height="23" viewBox="0 0 26 23" fill="none" xmlns="http://www.w3.org/2000/svg">
  <path
    d="M4.97079 15.6282C6.67056 14.6337 8.34757 13.5466 10.0213 12.4936C10.8615 11.9703 17.3128 8.09304 18.4698 5.96102C19.5001 4.06301 19.3376 -0.106784 12.7384 0.00209156C10.7932 0.0345919 8.01607 0.660223 5.52492 2.81662C4.71404 3.51863 1.78414 6.24215 1.63138 10.9856C1.62488 11.1984 1.79714 11.374 2.01001 11.374H2.01326C2.21639 11.374 2.38214 11.2147 2.39189 11.0132C2.47964 9.1623 3.25803 6.84991 5.37705 6.66141C7.28319 6.4924 8.46457 9.37031 5.16092 12.6203C4.57429 13.1972 3.34253 14.5411 1.15201 16.5041C0.840003 16.7853 0.506874 17.0778 0.154246 17.3833C-0.240633 17.7245 0.194871 18.3436 0.649876 18.0885C2.41464 17.0956 4.21678 16.0751 4.97079 15.6282Z"
    fill="url(#paint0_linear_393_3421)" />
  <path
    d="M21.029 7.12304C19.3293 8.11755 17.6522 9.20468 15.9785 10.2577C15.1383 10.7809 8.68704 14.6582 7.53003 16.7903C6.50139 18.6866 6.66389 22.8564 13.2615 22.7476C15.2066 22.7151 17.9838 22.0894 20.4749 19.933C21.2858 19.231 24.2157 16.5075 24.3684 11.7641C24.3749 11.5512 24.2027 11.3757 23.9898 11.3757H23.9866C23.7834 11.3757 23.6177 11.535 23.6079 11.7365C23.5202 13.5873 22.7418 15.8997 20.6228 16.0882C18.7166 16.2572 17.5352 13.3793 20.8389 10.1293C21.4255 9.55243 22.6573 8.20855 24.8478 6.24553C25.1598 5.9644 25.4929 5.6719 25.8456 5.36639C26.2405 5.02514 25.8049 4.40601 25.3499 4.66114C23.5852 5.65402 21.783 6.67453 21.029 7.12141V7.12304Z"
    fill="url(#paint1_linear_393_3421)" />
  <defs>
    <linearGradient id="paint0_linear_393_3421" x1="2.85177" y1="19.6079" x2="14.5178" y2="-0.597538"
      gradientUnits="userSpaceOnUse">
      <stop stop-color="#DB39FF" />
      <stop offset="0.5" stop-color="#0098FF" />
      <stop offset="1" stop-color="#00DEBC" />
    </linearGradient>
    <linearGradient id="paint1_linear_393_3421" x1="11.4821" y1="23.3488" x2="23.148" y2="3.14337"
      gradientUnits="userSpaceOnUse">
      <stop stop-color="#DB39FF" />
      <stop offset="0.5" stop-color="#0098FF" />
      <stop offset="1" stop-color="#00DEBC" />
    </linearGradient>
  </defs>
</svg>