<?xml version="1.0" standalone="no"?><!DOCTYPE svg PUBLIC "-//W3C//DTD SVG 1.1//EN" "http://www.w3.org/Graphics/SVG/1.1/DTD/svg11.dtd"><svg t="1661830050951" class="icon" viewBox="0 0 1024 1024" version="1.1" xmlns="http://www.w3.org/2000/svg" p-id="1811" xmlns:xlink="http://www.w3.org/1999/xlink" width="200" height="200"><path d="M674.1504 410.0096h-71.0656v-34.0992h71.0656c16.9472 0 30.72-13.7728 30.72-30.72s-13.7728-30.72-30.72-30.72h-34.9696l44.0832-43.1104a30.78144 30.78144 0 0 0 0.512-43.4688 30.78144 30.78144 0 0 0-43.4688-0.512L572.2624 293.888 504.32 227.4304c-12.1344-11.8784-31.5904-11.6736-43.4176 0.4608-11.8784 12.1344-11.6736 31.5904 0.4608 43.4176l44.0832 43.1104H470.528c-16.9472 0-30.72 13.7728-30.72 30.72s13.7728 30.72 30.72 30.72h71.0656v34.0992H470.528c-16.9472 0-30.72 13.7728-30.72 30.72s13.7728 30.72 30.72 30.72h71.0656v46.1824c0 16.9472 13.7728 30.72 30.72 30.72s30.72-13.7728 30.72-30.72v-46.1824h71.0656c16.9472 0 30.72-13.7728 30.72-30.72s-13.7216-30.6688-30.6688-30.6688z" fill="#7690F3" p-id="1812"></path><path d="M909.1072 661.9136c-13.8752-25.6512-38.6048-41.8304-65.6384-45.312 42.9568-57.5488 67.1744-128.2048 67.1744-201.3184 0-185.2928-150.7328-336.0256-336.0256-336.0256S238.5408 229.9392 238.5408 415.232c0 35.7888 5.632 70.7072 16.5888 104.192-16.6912 6.4512-32.768 14.9504-47.6672 25.7536l-75.264 54.3232c-14.2336 10.24-22.6816 26.88-22.6816 44.3904v177.9712c0 16.2816 7.168 31.5904 19.6608 42.0352a54.6816 54.6816 0 0 0 44.8512 11.8784l67.1232-12.1344c14.2848-2.6112 29.1328-1.536 42.9568 2.9696l188.16 62.0032a249.99936 249.99936 0 0 0 78.4384 12.6976c48.4352 0 96.1536-14.2336 137.7792-41.984l190.8224-122.0608c38.3488-24.576 51.456-75.264 29.7984-115.3536zM299.9808 415.232c0-151.3984 123.1872-274.5856 274.5856-274.5856s274.5856 123.1872 274.5856 274.5856c0 87.04-41.9328 169.7792-112.128 221.3888-3.5328 2.56-6.2976 5.7856-8.3456 9.3184l-62.6176 21.0944c-0.0512 0-0.0512-0.0512-0.1024-0.1024-28.2112-19.2-172.2368-103.2704-228.3008-134.7584-37.888-21.2992-80.5888-29.952-122.4192-26.5728a273.2032 273.2032 0 0 1-15.2576-90.368z m546.1504 310.272l-191.0784 122.2144c-0.1536 0.1024-0.3584 0.2048-0.512 0.3584-48.384 32.3072-107.8272 40.448-163.1232 22.2208l-188.16-62.0032c-15.0528-4.9664-30.8736-7.4752-46.6944-7.4752-8.8576 0-17.7152 0.768-26.4704 2.3552l-59.2896 10.7008v-166.5536l72.4992-52.3264c48.0768-34.7136 112.4864-38.3488 164.1472-9.2672 52.736 29.696 165.376 95.4368 209.5104 122.8288-3.2768 4.1984-8.1408 8.704-14.8992 12.6976-7.3728 4.3008-19.3536 6.4-36.7616 6.4-12.4928 0-26.2656-2.9184-40.9088-8.704l-0.768-0.3584c-50.7392-24.32-94.1056-46.8992-99.1744-49.5104-15.0528-7.7824-33.4848-1.8432-41.2672 13.2096a30.78144 30.78144 0 0 0 13.1584 41.4208c4.9152 2.56 49.408 25.6512 101.2224 50.5344 0.3072 0.1536 0.6144 0.3072 0.9728 0.4096l1.7408 0.768c0.3072 0.1536 0.6144 0.256 0.9728 0.4096 22.0672 8.8064 43.6224 13.2608 64.1024 13.2608 29.0304 0 50.5856-4.7104 67.8912-14.8992 19.8656-11.6736 34.9184-27.8016 43.3152-45.8752l146.7904-49.4592a26.0608 26.0608 0 0 1 31.6928 12.1856c6.5024 12.032 2.56 27.136-8.9088 34.4576z" fill="#333333" p-id="1813"></path></svg>